<svg version="1.2" xmlns="http://www.w3.org/2000/svg" viewBox="0 0 1541 529" width="1541" height="529">
	<title>Sustainability2023_Eng_lt-1-pdf</title>
	<defs>
		<clipPath clipPathUnits="userSpaceOnUse" id="cp1">
			<path d="m-449-394h10682v14984h-10682z"/>
		</clipPath>
		<radialGradient id="g1" cx="0" cy="0" r="1" gradientUnits="userSpaceOnUse" gradientTransform="matrix(188.155,0,0,188.155,111.534,74.522)">
			<stop offset="0" stop-color="#ff8087"/>
			<stop offset=".719" stop-color="#ff3623"/>
			<stop offset="1" stop-color="#ff2e17"/>
		</radialGradient>
		<radialGradient id="g2" cx="0" cy="0" r="1" gradientUnits="userSpaceOnUse" gradientTransform="matrix(545.711,0,0,545.711,-96.418,-96.728)">
			<stop offset="0" stop-color="#9eadc3"/>
			<stop offset=".209" stop-color="#9eadc3"/>
			<stop offset=".452" stop-color="#f7f8fc"/>
			<stop offset=".544" stop-color="#f7f8fc"/>
			<stop offset=".637" stop-color="#abbbcf"/>
			<stop offset=".742" stop-color="#2d384e"/>
			<stop offset=".895" stop-color="#c0cddb"/>
			<stop offset=".95" stop-color="#f7f8fc"/>
			<stop offset="1" stop-color="#f7f8fc"/>
		</radialGradient>
		<radialGradient id="g3" cx="0" cy="0" r="1" gradientUnits="userSpaceOnUse" gradientTransform="matrix(419.523,0,0,419.523,-25.65,-25.924)">
			<stop offset="0" stop-color="#9caabe"/>
			<stop offset=".209" stop-color="#9caabe"/>
			<stop offset=".456" stop-color="#f7f8fc"/>
			<stop offset=".555" stop-color="#f7f8fc"/>
			<stop offset=".626" stop-color="#a4b4c8"/>
			<stop offset=".743" stop-color="#42526d"/>
			<stop offset=".885" stop-color="#d0d5e1"/>
			<stop offset=".945" stop-color="#f7f8fc"/>
			<stop offset="1" stop-color="#f7f8fc"/>
		</radialGradient>
		<linearGradient id="g4" x2="1" gradientUnits="userSpaceOnUse" gradientTransform="matrix(220.894,220.894,-220.894,220.894,53.608,53.365)">
			<stop offset="0" stop-color="#f2f2f2"/>
			<stop offset=".637" stop-color="#85878b"/>
			<stop offset="1" stop-color="#ececed"/>
		</linearGradient>
		<linearGradient id="g5" x2="1" gradientUnits="userSpaceOnUse" gradientTransform="matrix(-24.402,0,0,-71.203,176.14,111.508)">
			<stop offset="0" stop-color="#ffffff"/>
			<stop offset="1" stop-color="#707176"/>
		</linearGradient>
		<linearGradient id="g6" x2="1" gradientUnits="userSpaceOnUse" gradientTransform="matrix(0,57.406,-15.645,0,148.087,61.339)">
			<stop offset="0" stop-color="#bac4c5"/>
			<stop offset=".483" stop-color="#ffffff"/>
			<stop offset="1" stop-color="#eaeced"/>
		</linearGradient>
		<linearGradient id="g7" x2="1" gradientUnits="userSpaceOnUse" gradientTransform="matrix(-24.427,0,0,-71.173,176.152,111.508)">
			<stop offset="0" stop-color="#f5f6f6"/>
			<stop offset="1" stop-color="#85878b"/>
		</linearGradient>
		<linearGradient id="g8" x2="1" gradientUnits="userSpaceOnUse" gradientTransform="matrix(0,66.307,-18.071,0,180.028,59.764)">
			<stop offset="0" stop-color="#707176"/>
			<stop offset=".544" stop-color="#ffffff"/>
			<stop offset="1" stop-color="#707176"/>
		</linearGradient>
		<linearGradient id="g9" x2="1" gradientUnits="userSpaceOnUse" gradientTransform="matrix(-2.116,-3.848,11.524,-6.336,121.161,194.022)">
			<stop offset="0" stop-color="#ffffff"/>
			<stop offset="1" stop-color="#85878b"/>
		</linearGradient>
		<linearGradient id="g10" x2="1" gradientUnits="userSpaceOnUse" gradientTransform="matrix(.974,1.01,-1.648,1.589,48.981,224.682)">
			<stop offset="0" stop-color="#ffffff"/>
			<stop offset="1" stop-color="#595b61"/>
		</linearGradient>
		<linearGradient id="g11" x2="1" gradientUnits="userSpaceOnUse" gradientTransform="matrix(-52.816,24.373,-5.469,-11.851,138.34,200.651)">
			<stop offset="0" stop-color="#43454b"/>
			<stop offset=".626" stop-color="#b4b5b7"/>
			<stop offset="1" stop-color="#43454b"/>
		</linearGradient>
		<linearGradient id="g12" x2="1" gradientUnits="userSpaceOnUse" gradientTransform="matrix(-4.042,-9.238,19.551,-8.554,118.609,191.372)">
			<stop offset="0" stop-color="#85878b"/>
			<stop offset="1" stop-color="#595b61"/>
		</linearGradient>
		<linearGradient id="g13" x2="1" gradientUnits="userSpaceOnUse" gradientTransform="matrix(-54.21,28.643,-8.685,-16.438,119.49,172.151)">
			<stop offset="0" stop-color="#e8e8e9"/>
			<stop offset=".588" stop-color="#babbbd"/>
			<stop offset=".83" stop-color="#ffffff"/>
			<stop offset="1" stop-color="#c0c1c3"/>
		</linearGradient>
		<linearGradient id="g14" x2="1" gradientUnits="userSpaceOnUse" gradientTransform="matrix(-9.617,-6.347,2.014,-3.052,228.192,194.279)">
			<stop offset="0" stop-color="#ffffff"/>
			<stop offset="1" stop-color="#85878b"/>
		</linearGradient>
		<linearGradient id="g15" x2="1" gradientUnits="userSpaceOnUse" gradientTransform="matrix(49.736,0,0,41.21,211.551,184.418)">
			<stop offset="0" stop-color="#e8e8e9"/>
			<stop offset=".588" stop-color="#babbbd"/>
			<stop offset="1" stop-color="#ffffff"/>
		</linearGradient>
		<linearGradient id="g16" x2="1" gradientUnits="userSpaceOnUse" gradientTransform="matrix(-9.618,-6.347,2.606,-3.949,221.097,205.036)">
			<stop offset="0" stop-color="#ffffff"/>
			<stop offset="1" stop-color="#85878b"/>
		</linearGradient>
		<linearGradient id="g17" x2="1" gradientUnits="userSpaceOnUse" gradientTransform="matrix(-1.154,.535,-0.414,-0.892,287.663,225.685)">
			<stop offset="0" stop-color="#d8d9da"/>
			<stop offset="1" stop-color="#9b9c9f"/>
		</linearGradient>
		<linearGradient id="g18" x2="1" gradientUnits="userSpaceOnUse" gradientTransform="matrix(59.387,0,0,23.527,187.822,216.749)">
			<stop offset="0" stop-color="#b0b1b3"/>
			<stop offset=".555" stop-color="#43454b"/>
			<stop offset="1" stop-color="#ffffff"/>
		</linearGradient>
		<linearGradient id="g19" x2="1" gradientUnits="userSpaceOnUse" gradientTransform="matrix(-19.923,0,0,-46.588,173.825,21.272)">
			<stop offset="0" stop-color="#d8d9da"/>
			<stop offset="1" stop-color="#626469"/>
		</linearGradient>
		<linearGradient id="g20" x2="1" gradientUnits="userSpaceOnUse" gradientTransform="matrix(-185.185,-185.185,78.114,-78.114,317.707,193.875)">
			<stop offset="0" stop-color="#ffffff"/>
			<stop offset="1" stop-color="#231c1c"/>
		</linearGradient>
		<linearGradient id="g21" x2="1" gradientUnits="userSpaceOnUse" gradientTransform="matrix(4.552,-9.453,18.281,8.803,284.834,241.464)">
			<stop offset="0" stop-color="#ffffff"/>
			<stop offset="1" stop-color="#85878b"/>
		</linearGradient>
		<linearGradient id="g22" x2="1" gradientUnits="userSpaceOnUse" gradientTransform="matrix(4.557,-9.463,27.257,13.125,284.161,241.142)">
			<stop offset="0" stop-color="#ffffff"/>
			<stop offset="1" stop-color="#85878b"/>
		</linearGradient>
		<linearGradient id="g23" x2="1" gradientUnits="userSpaceOnUse" gradientTransform="matrix(-185.224,-185.224,185.217,-185.217,218.016,293.622)">
			<stop offset="0" stop-color="#ffffff"/>
			<stop offset="1" stop-color="#231c1c"/>
		</linearGradient>
		<linearGradient id="g24" x2="1" gradientUnits="userSpaceOnUse" gradientTransform="matrix(-5.606,-11.913,35.195,-16.563,44.367,242.055)">
			<stop offset="0" stop-color="#f5f6f6"/>
			<stop offset="1" stop-color="#43454b"/>
		</linearGradient>
		<linearGradient id="g25" x2="1" gradientUnits="userSpaceOnUse" gradientTransform="matrix(-5.607,-11.915,22.557,-10.615,43.623,242.433)">
			<stop offset="0" stop-color="#f5f6f6"/>
			<stop offset="1" stop-color="#43454b"/>
		</linearGradient>
		<linearGradient id="g26" x2="1" gradientUnits="userSpaceOnUse" gradientTransform="matrix(-185.169,-185.169,438.793,-438.793,242.258,269.337)">
			<stop offset="0" stop-color="#ffffff"/>
			<stop offset="1" stop-color="#231c1c"/>
		</linearGradient>
		<linearGradient id="g27" x2="1" gradientUnits="userSpaceOnUse" gradientTransform="matrix(-19.946,0,0,-46.562,173.836,21.272)">
			<stop offset="0" stop-color="#d8d9da"/>
			<stop offset="1" stop-color="#626469"/>
		</linearGradient>
		<clipPath clipPathUnits="userSpaceOnUse" id="cp2">
			<path d="m10228.44 1356.21v13233.54h-10677.11v-13233.54z"/>
		</clipPath>
	</defs>
	<style>
		.s0 { fill: #ff2e17 } 
		.s1 { fill: url(#g1) } 
		.s2 { fill: #160000 } 
		.s3 { fill: url(#g2) } 
		.s4 { fill: url(#g3) } 
		.s5 { fill: #ffffff } 
		.s6 { fill: #2c3034 } 
		.s7 { fill: #3e4449 } 
		.s8 { fill: url(#g4) } 
		.s9 { fill: #f0f0f0 } 
		.s10 { fill: url(#g5) } 
		.s11 { fill: #43454b } 
		.s12 { fill: url(#g6) } 
		.s13 { fill: #9b9c9f } 
		.s14 { fill: #f5f6f6 } 
		.s15 { fill: url(#g7) } 
		.s16 { fill: url(#g8) } 
		.s17 { fill: #707176 } 
		.s18 { fill: #c4c5c7 } 
		.s19 { fill: url(#g9) } 
		.s20 { fill: url(#g10) } 
		.s21 { fill: url(#g11) } 
		.s22 { fill: #85878b } 
		.s23 { fill: url(#g12) } 
		.s24 { fill: url(#g13) } 
		.s25 { fill: url(#g14) } 
		.s26 { fill: #d8d9da } 
		.s27 { fill: url(#g15) } 
		.s28 { fill: url(#g16) } 
		.s29 { fill: url(#g17) } 
		.s30 { fill: url(#g18) } 
		.s31 { fill: url(#g19) } 
		.s32 { fill: url(#g20) } 
		.s33 { fill: url(#g21) } 
		.s34 { fill: url(#g22) } 
		.s35 { fill: url(#g23) } 
		.s36 { fill: url(#g24) } 
		.s37 { fill: url(#g25) } 
		.s38 { fill: url(#g26) } 
		.s39 { fill: url(#g27) } 
		.s40 { fill: #2c2e35 } 
	</style>
	<g id="Page 1" clip-path="url(#cp1)">
		<path id="Path 3" class="s0" d="m1173 26v276.4h56.6v-116h49.1v116h56.3v-276.4h-56.3v110.1h-49.1v-110.1zm-436.5 0v276.4h51.8v-175.7l30.5 175.7h34.4l31-175.7v175.7h52v-276.4h-77.1l-22.8 132.9-22.7-132.9zm-325.5 0l34.5 123.5 34.5-123.5h56.2l-60.6 185.7v90.7h-60.1v-90.7l-60.7-185.7z"/>
		<path id="Path 4" fill-rule="evenodd" class="s0" d="m705.1 302.4h-56.3l-9.4-65.8h-42.3l-9.4 65.8h-56l49.2-276.4h74.9zm-100.8-116h28l-14-98zm537 116h-56.3l-9.4-65.8h-42.3l-9.4 65.8h-56l49.2-276.5h74.9zm-100.8-116h28l-14-98zm499.9 116h-56.3l-9.4-65.8h-42.3l-9.4 65.8h-55.9l49.2-276.4h74.8zm-100.8-116h27.9l-13.9-98z"/>
		<path id="Path 5" class="s1" d="m164.1 327.4c-90.5 0-163.5-73.1-163.5-163.6 0-90.4 73-163.5 163.5-163.5 90.4 0 163.5 73.1 163.5 163.5 0 90.5-73.1 163.6-163.5 163.6z"/>
		<path id="Path 6" fill-rule="evenodd" class="s2" d="m164.1 327.2c-87.2 0-157.7-70.5-157.7-157.7 0-87.2 70.5-157.7 157.7-157.7 87.1 0 157.6 70.5 157.6 157.7 0 87.2-70.5 157.7-157.6 157.7zm-107.6-84.4c23.5 34.3 62.9 56.8 107.6 56.8 44.6 0 84.1-22.5 107.5-56.8l0.2-0.4 22.3 4.9h0.3c0.9 0 1.8-0.4 2.2-1.3q0.4-0.6 0.4-1.2c0-0.6-0.2-1.1-0.5-1.5l-15.4-16.9 0.2-0.4c8.2-17.1 12.9-36.3 12.9-56.5 0-68.6-53.1-124.9-120.5-129.8l-0.4-0.1-6.9-21.7c-0.4-0.9-1.3-1.6-2.3-1.6-1.1 0-2 0.7-2.4 1.6l-6.9 21.7-0.5 0.1c-67.3 5-120.3 61.2-120.3 129.8 0 20.2 4.6 39.4 12.8 56.5l0.2 0.4-15.4 16.8c-0.3 0.5-0.5 1-0.5 1.6 0 0.4 0.1 0.8 0.4 1.2 0.4 0.9 1.3 1.3 2.2 1.3 0.1 0 0.2 0 0.3 0l22.3-4.9z"/>
		<path id="Path 7" fill-rule="evenodd" class="s2" d="m174.8 281.3v-76.5l-10.8-6.2-10.7 6.2v76.5h-14.5v-68.1l-12.2 7.1c-4 2.3-8.4 3.4-12.6 3.4-3.5 0-6.8-0.7-10-2.1v0.1c-1.9-0.9-4-1.3-6.2-1.3-2.6 0-5.3 0.7-7.8 2.1-4.4 2.5-7.1 7-7.7 11.7l-0.1 0.5-47.4 11q-0.1 0.1-0.3 0.1c-0.5 0-1-0.3-1.3-0.8-0.1-0.2-0.2-0.5-0.2-0.7 0-0.4 0.2-0.8 0.5-1.1l33.2-35.5 0.4 0.2c2 0.9 4.1 1.3 6.2 1.3 2.7 0 5.4-0.7 7.8-2.1 4.5-2.6 7.2-7 7.8-11.7 0.9-7.6 5.3-14.7 12.4-18.8l12.3-7.1-59-34.1 7.3-12.5 66.2 38.2 10.7-6.2v-12.4l-66.2-38.2 7.3-12.6 58.9 34.1v-14.2c0-8.3 4-15.6 10.1-20.2 3.8-2.9 6.3-7.4 6.3-12.6 0-5.1-2.5-9.7-6.3-12.5l-0.4-0.3 14.1-46.6c0.2-0.6 0.8-1 1.5-1 0.6 0 1.2 0.4 1.4 1l14.1 46.6-0.3 0.3c-3.9 2.8-6.4 7.4-6.4 12.5 0 5.2 2.5 9.7 6.3 12.6 6.1 4.6 10.1 11.9 10.1 20.2v14.2l58.9-34.1 7.3 12.6-66.2 38.2v12.4l10.7 6.2 66.3-38.2 7.2 12.5-59 34.1 12.3 7.1c7.1 4.1 11.5 11.2 12.4 18.8 0.6 4.7 3.3 9.1 7.8 11.7 2.4 1.4 5.1 2.1 7.8 2.1 2.1 0 4.2-0.4 6.2-1.3l0.4-0.2 33.3 35.5c0.2 0.3 0.4 0.7 0.4 1.1q0 0.4-0.2 0.7c-0.3 0.5-0.8 0.8-1.3 0.8q-0.2 0-0.4-0.1l-47.3-11-0.1-0.5c-0.5-4.7-3.3-9.1-7.7-11.7-2.5-1.4-5.2-2.1-7.8-2.1-2.2 0-4.3 0.4-6.2 1.3v-0.1c-3.2 1.4-6.6 2.1-10 2.1-4.2 0-8.6-1.1-12.5-3.4l-12.3-7.1v68.1zm-21.5-118.1v12.5l10.7 6.2 10.8-6.2v-12.4l-10.8-6.2zm-44.7 25.8c-3.5 2-5.4 5.6-5.4 9.3 0 1.8 0.5 3.7 1.4 5.4 2 3.5 5.6 5.4 9.4 5.4 1.8 0 3.6-0.5 5.3-1.5l19.5-11.2v-12.4l-10.7-6.2zm80.7-5.1v12.4l19.5 11.3c1.7 1 3.6 1.4 5.4 1.4 3.7 0 7.3-1.9 9.3-5.4 1-1.7 1.4-3.5 1.4-5.3 0-3.8-1.9-7.4-5.3-9.3l-19.5-11.3zm-36-49.9l10.7 6.2 10.8-6.3v-22.5c0-5.9-4.8-10.7-10.7-10.7-6 0-10.8 4.8-10.8 10.7zm10.7 48.6l0.4-0.6z"/>
		<path id="Path 8" fill-rule="evenodd" class="s2" d="m164.1 324c-86.9 0-157-70.2-157-157 0-86.9 70.1-157 157-157 86.8 0 156.9 70.1 156.9 157 0 86.8-70.1 157-156.9 157zm133.1-80.1c0.7-1.2 0.6-2.6-0.2-3.6l-15.1-16.5c8.3-17.2 13-36.5 13-56.8 0-69-53.4-125.5-121.1-130.5l-6.7-21.4c-0.5-1.2-1.7-1.9-3-1.9-1.4 0-2.5 0.8-3.1 1.9l-6.7 21.4c-67.7 5-121 61.5-121 130.5 0 20.3 4.6 39.6 12.9 56.8l-15.1 16.5c-0.8 1-0.9 2.4-0.2 3.6 0.7 1.2 2 1.8 3.2 1.6l21.8-4.8c23.6 34.5 63.2 57.1 108.2 57.1 44.9 0 84.5-22.6 108.1-57.1l21.8 4.8c1.3 0.2 2.6-0.4 3.2-1.6z"/>
		<path id="Path 9" fill-rule="evenodd" class="s2" d="m294.3 242.2c-0.2 0.3-0.6 0.4-0.9 0.4l-46.9-10.9c-0.6-5-3.4-9.6-8.1-12.3-4.6-2.7-10-2.9-14.6-0.9h0.1c-6.9 2.9-15 2.7-22-1.3l-13.3-7.7v68.6h-13.1v-76.2l-11.5-6.6-11.4 6.6v76.2h-13.1v-68.6l-13.3 7.7c-7 4-15.1 4.2-21.9 1.3-4.6-2-10-1.8-14.6 0.9-4.7 2.7-7.5 7.3-8.1 12.3l-46.9 10.9c-0.3 0-0.7-0.1-0.9-0.4-0.1-0.3-0.1-0.7 0.1-1l32.9-35.2c4.6 2 10 1.9 14.7-0.8 4.6-2.7 7.5-7.3 8-12.2h0.1c0.9-7.4 5.1-14.3 12.1-18.3l13.3-7.7-59.4-34.3 6.5-11.4 66 38.1 11.4-6.6v-13.2l-65.9-38.1 6.5-11.3 59.4 34.3v-15.4c0-8.1 3.9-15.2 9.9-19.7h-0.1c4-2.9 6.6-7.7 6.6-13.1 0-5.3-2.6-10.1-6.6-13.1l14-46.1c0.1-0.3 0.4-0.5 0.8-0.5 0.3 0 0.6 0.2 0.7 0.5l14 46.1c-4 3-6.5 7.8-6.5 13.1 0 5.4 2.5 10.2 6.5 13.1h-0.1c6 4.5 9.9 11.6 9.9 19.7v15.3l59.4-34.2 6.5 11.3-65.9 38.1v13.2l11.4 6.6 66-38.1 6.5 11.4-59.4 34.3 13.3 7.7c7 4 11.2 10.9 12.1 18.3 0.6 4.9 3.5 9.5 8.1 12.2 4.7 2.7 10.1 2.8 14.7 0.8l32.9 35.2c0.2 0.3 0.3 0.7 0.1 1zm-154.8-47.8v-13.2l-11.4-6.7-19.9 11.5c-5.5 3.2-7.3 10.2-4.2 15.6 3.2 5.5 10.2 7.4 15.7 4.2zm13.1-62.3l11.4 6.6 11.4-6.6v-23c0-6.3-5.1-11.4-11.4-11.4-6.3 0-11.4 5.1-11.4 11.4zm22.8 41.6v-13.2l-11.4-6.6-11.4 6.6v13.2l11.4 6.6zm44.4 12.5l-19.9-11.5-11.4 6.6v13.2l19.8 11.5c5.5 3.1 12.5 1.3 15.7-4.2 3.1-5.5 1.2-12.5-4.2-15.6z"/>
		<path id="Path 10" fill-rule="evenodd" class="s3" d="m164.1 320.8c-86.9 0-157-70.2-157-157 0-86.8 70.1-157 157-157 86.8 0 156.9 70.2 156.9 157 0 86.8-70.1 157-156.9 157zm-130.4-78.4q0.2 0 0.4-0.1l21.9-4.8c23.5 34.5 63.1 57.2 108.1 57.2 44.9 0 84.5-22.7 108.1-57.2l21.8 4.9c1.3 0.1 2.6-0.5 3.2-1.7 0.7-1.1 0.6-2.6-0.2-3.6l-15.1-16.5c8.3-17.1 13-36.4 13-56.8 0-69-53.4-125.5-121.1-130.5l-6.7-21.3c-0.5-1.2-1.7-2-3-2-1.4 0-2.5 0.8-3.1 2l-6.7 21.3c-67.7 5-121.1 61.5-121.1 130.5 0 20.4 4.7 39.7 13 56.8l-15.1 16.6c-0.8 1-0.9 2.4-0.2 3.5 0.6 1.1 1.7 1.7 2.8 1.7z"/>
		<path id="Path 11" fill-rule="evenodd" class="s4" d="m164.1 13.4c0.3 0 0.6 0.2 0.7 0.6l14 46.1c-4 2.9-6.6 7.7-6.6 13.1 0 5.4 2.6 10.1 6.6 13.1h-0.1c6 4.4 9.9 11.6 9.9 19.6v15.4l59.4-34.3 6.5 11.3-65.9 38.1v13.3l11.4 6.6 66-38.1 6.6 11.3-59.5 34.3 13.3 7.7c7 4 11.3 11 12.1 18.4v-0.1c0.6 4.9 3.5 9.6 8.1 12.2 4.7 2.8 10.1 2.9 14.7 0.9l32.9 35.2c0.2 0.2 0.3 0.6 0.1 0.9-0.2 0.3-0.6 0.5-0.9 0.4l-46.9-10.9c-0.6-4.9-3.4-9.6-8.1-12.3-4.6-2.6-10-2.8-14.6-0.8v-0.1c-6.8 3-14.9 2.7-21.9-1.3l-13.3-7.6v68.6h-13.1v-76.2l-11.5-6.6-11.4 6.6v76.2h-13.1v-68.7l-13.3 7.7c-7 4-15.1 4.3-21.9 1.3v0.1c-4.6-2-10-1.9-14.6 0.8-4.7 2.7-7.5 7.3-8.1 12.3l-46.9 10.9c-0.3 0.1-0.7-0.1-0.9-0.4-0.1-0.3-0.1-0.7 0.1-0.9l32.9-35.2c4.6 2 10 1.8 14.7-0.9 4.6-2.6 7.4-7.3 8.1-12.2v0.1c0.9-7.5 5.1-14.4 12.1-18.4l13.3-7.7-59.4-34.3 6.5-11.3 66 38.1 11.4-6.7v-13.2l-66-38 6.6-11.4 59.4 34.3v-15.4c0-8 3.9-15.2 9.9-19.6h-0.1c4-3 6.6-7.7 6.6-13.1 0-5.4-2.6-10.2-6.6-13.1l14-46.1c0.1-0.4 0.4-0.6 0.8-0.6zm-0.1 122.1l11.5-6.6v-23c0-6.3-5.1-11.4-11.4-11.4-6.4 0-11.5 5.1-11.5 11.4v23zm0 41.5l11.5-6.6v-13.2l-11.5-6.6-11.4 6.6v13.2zm50.1 27.2c4 0 7.8-2.1 9.9-5.7 3.2-5.5 1.3-12.5-4.1-15.7l-19.9-11.5-11.4 6.7v13.2l19.8 11.5c1.8 1 3.8 1.5 5.7 1.5zm-100.2 0c2 0 3.9-0.5 5.7-1.5l19.9-11.5v-13.2l-11.5-6.6-19.8 11.4c-5.5 3.2-7.4 10.2-4.2 15.7 2.1 3.6 5.9 5.7 9.9 5.7z"/>
		<g id="&lt;Group&gt;" style="opacity: .4;mix-blend-mode: lighten">
			<path id="Path 13" fill-rule="evenodd" class="s5" d="m164.1 320.8c-86.9 0-157-70.2-157-157 0-86.8 70.1-157 157-157 86.8 0 156.9 70.2 156.9 157 0 86.8-70.1 157-156.9 157zm133.1-80.1c0.7-1.2 0.6-2.6-0.2-3.6l-15.1-16.5c8.3-17.1 13-36.4 13-56.8 0-69-53.4-125.5-121.1-130.5l-6.7-21.3c-0.5-1.2-1.7-2-3-2-1.4 0-2.5 0.8-3.1 2l-6.7 21.3c-67.7 5-121 61.5-121 130.5 0 20.4 4.6 39.7 12.9 56.8l-15.1 16.6c-0.8 1-0.9 2.4-0.2 3.5 0.7 1.2 2 1.8 3.2 1.6l21.8-4.8c23.6 34.5 63.2 57.2 108.2 57.2 44.9 0 84.5-22.7 108.1-57.2l21.8 4.9c1.3 0.1 2.6-0.5 3.2-1.7z"/>
			<g id="&lt;Group&gt;" style="opacity: .8">
				<path id="Path 15" fill-rule="evenodd" class="s6" d="m164.1 320.8c-86.9 0-157-70.2-157-157 0-86.8 70.1-157 157-157 86.8 0 156.9 70.2 156.9 157 0 86.8-70.1 157-156.9 157zm133.1-80.1c0.7-1.2 0.6-2.6-0.2-3.6l-15.1-16.5c8.3-17.1 13-36.4 13-56.8 0-69-53.4-125.5-121.1-130.5l-6.7-21.3c-0.5-1.2-1.7-2-3-2-1.4 0-2.5 0.8-3.1 2l-6.7 21.3c-67.7 5-121 61.5-121 130.5 0 20.4 4.6 39.7 12.9 56.8l-15.1 16.6c-0.8 1-0.9 2.4-0.2 3.5 0.7 1.2 2 1.8 3.2 1.6l21.8-4.8c23.6 34.5 63.2 57.2 108.2 57.2 44.9 0 84.5-22.7 108.1-57.2l21.8 4.9c1.3 0.1 2.6-0.5 3.2-1.7z"/>
			</g>
		</g>
		<g id="&lt;Group&gt;" style="opacity: .3;mix-blend-mode: lighten">
			<path id="Path 19" fill-rule="evenodd" class="s5" d="m294.3 239c-0.2 0.3-0.6 0.5-0.9 0.4l-46.9-10.9c-0.6-5-3.4-9.6-8.1-12.3-4.6-2.6-10-2.8-14.6-0.8l0.1-0.1c-6.9 3-15 2.7-22-1.3l-13.3-7.7v68.7h-13.1v-76.2l-11.5-6.6-11.4 6.6v76.2h-13.1v-68.7l-13.3 7.7c-7 4-15.1 4.2-21.9 1.3v0.1c-4.6-2-10-1.8-14.6 0.8-4.7 2.7-7.5 7.3-8.1 12.3l-46.9 10.9c-0.3 0.1-0.7-0.1-0.9-0.4-0.1-0.3-0.1-0.7 0.1-1l32.9-35.1c4.6 2 10 1.8 14.7-0.8 4.6-2.7 7.5-7.3 8-12.3l0.1 0.1c0.9-7.5 5.1-14.4 12.1-18.4l13.3-7.7-59.4-34.3 6.5-11.3 66 38.1 11.4-6.7v-13.2l-65.9-38.1 6.5-11.3 59.4 34.3v-15.4c0-8 3.9-15.1 9.9-19.6h-0.1c4-3 6.6-7.8 6.6-13.1 0-5.4-2.6-10.2-6.6-13.1l14-46.1c0.1-0.4 0.4-0.6 0.8-0.6 0.3 0 0.6 0.2 0.7 0.6l14 46.1c-4 2.9-6.5 7.7-6.5 13.1 0 5.3 2.5 10.1 6.5 13.1h-0.1c6 4.5 9.9 11.6 9.9 19.6v15.4l59.4-34.3 6.5 11.3-65.9 38.1v13.2l11.4 6.7 66-38.1 6.5 11.3-59.4 34.3 13.3 7.7c7 4 11.2 11 12.1 18.4v-0.1c0.6 5 3.5 9.6 8.1 12.3 4.7 2.6 10.1 2.8 14.7 0.8l32.9 35.2c0.2 0.2 0.3 0.6 0.1 0.9zm-154.8-47.8v-13.2l-11.4-6.6-19.9 11.5c-5.5 3.1-7.3 10.1-4.2 15.6 3.2 5.5 10.2 7.3 15.7 4.2zm13.1-62.4l11.4 6.6 11.4-6.6v-22.9c0-6.3-5.1-11.5-11.4-11.5-6.3 0-11.4 5.2-11.4 11.5zm22.8 41.6v-13.2l-11.4-6.6-11.4 6.6v13.2l11.4 6.6zm44.4 12.4l-19.9-11.5-11.4 6.7v13.2l19.8 11.4c5.5 3.2 12.5 1.3 15.7-4.1 3.1-5.5 1.2-12.5-4.2-15.7z"/>
			<g id="&lt;Group&gt;" style="opacity: .6">
				<path id="Path 21" fill-rule="evenodd" class="s7" d="m294.3 239c-0.2 0.3-0.6 0.5-0.9 0.4l-46.9-10.9c-0.6-5-3.4-9.6-8.1-12.3-4.6-2.6-10-2.8-14.6-0.8l0.1-0.1c-6.9 3-15 2.7-22-1.3l-13.3-7.7v68.7h-13.1v-76.2l-11.5-6.6-11.4 6.6v76.2h-13.1v-68.7l-13.3 7.7c-7 4-15.1 4.2-21.9 1.3v0.1c-4.6-2-10-1.8-14.6 0.8-4.7 2.7-7.5 7.3-8.1 12.3l-46.9 10.9c-0.3 0.1-0.7-0.1-0.9-0.4-0.1-0.3-0.1-0.7 0.1-1l32.9-35.1c4.6 2 10 1.8 14.7-0.8 4.6-2.7 7.5-7.3 8-12.3l0.1 0.1c0.9-7.5 5.1-14.4 12.1-18.4l13.3-7.7-59.4-34.3 6.5-11.3 66 38.1 11.4-6.7v-13.2l-65.9-38.1 6.5-11.3 59.4 34.3v-15.4c0-8 3.9-15.1 9.9-19.6h-0.1c4-3 6.6-7.8 6.6-13.1 0-5.4-2.6-10.2-6.6-13.1l14-46.1c0.1-0.4 0.4-0.6 0.8-0.6 0.3 0 0.6 0.2 0.7 0.6l14 46.1c-4 2.9-6.5 7.7-6.5 13.1 0 5.3 2.5 10.1 6.5 13.1h-0.1c6 4.5 9.9 11.6 9.9 19.6v15.4l59.4-34.3 6.5 11.3-65.9 38.1v13.2l11.4 6.7 66-38.1 6.5 11.3-59.4 34.3 13.3 7.7c7 4 11.2 11 12.1 18.4v-0.1c0.6 5 3.5 9.6 8.1 12.3 4.7 2.6 10.1 2.8 14.7 0.8l32.9 35.2c0.2 0.2 0.3 0.6 0.1 0.9zm-154.8-47.8v-13.2l-11.4-6.6-19.9 11.5c-5.5 3.1-7.3 10.1-4.2 15.6 3.2 5.5 10.2 7.3 15.7 4.2zm13.1-62.4l11.4 6.6 11.4-6.6v-22.9c0-6.3-5.1-11.5-11.4-11.5-6.3 0-11.4 5.2-11.4 11.5zm22.8 41.6v-13.2l-11.4-6.6-11.4 6.6v13.2l11.4 6.6zm44.4 12.4l-19.9-11.5-11.4 6.7v13.2l19.8 11.4c5.5 3.2 12.5 1.3 15.7-4.1 3.1-5.5 1.2-12.5-4.2-15.7z"/>
			</g>
		</g>
		<path id="Path 24" fill-rule="evenodd" class="s8" d="m164.1 320.8c-86.9 0-157-70.2-157-157 0-86.8 70.1-157 157-157 86.8 0 156.9 70.2 156.9 157 0 86.8-70.1 157-156.9 157zm0-0.8c43.1 0 82.1-17.4 110.4-45.7 28.3-28.3 45.7-67.3 45.7-110.5 0-43.1-17.4-82.2-45.7-110.5-28.3-28.2-67.3-45.7-110.4-45.7-43.2 0-82.2 17.5-110.5 45.7-28.2 28.3-45.7 67.4-45.7 110.5 0 43.2 17.5 82.2 45.7 110.5 28.3 28.3 67.3 45.7 110.5 45.7z"/>
		<path id="Path 25" class="s9" d="m164 136.4v-0.9l-11.4-6.6-0.8 0.4z"/>
		<path id="Path 26" class="s10" d="m151.8 105.9v23.4l0.8-0.4v-23c0-6.3 5.1-11.4 11.4-11.4v-0.8c-6.7 0-12.2 5.5-12.2 12.2z"/>
		<path id="Path 27" class="s11" d="m164 149.7l-12.2 7 0.8 0.5 11.4-6.6z"/>
		<path id="Path 28" class="s5" d="m164 14.2c0 0 0 0 0.1 0v-0.8c-0.4 0-0.7 0.2-0.8 0.6l-14 46.1 0.9-0.3z"/>
		<path id="Path 29" class="s12" d="m149.3 60.1c4 2.9 6.6 7.7 6.6 13.1 0 5.4-2.6 10.1-6.6 13.1h0.1c-6 4.4-9.9 11.6-9.9 19.6v15.4l0.8 1.4v-16.8c0-7.8 3.8-14.7 9.6-19h-0.1c4.2-3.1 6.9-8.1 6.9-13.7 0-5.4-2.6-10.3-6.5-13.4z"/>
		<path id="Path 30" class="s13" d="m73.6 98.3l65.9 38.1 0.8-0.4-65.7-38z"/>
		<path id="Path 31" class="s14" d="m139.5 149.6l0.8 0.5v-14.1l-0.8 0.4z"/>
		<path id="Path 32" class="s5" d="m74.6 98l5.8-9.9-0.3-1.1-6.5 11.4z"/>
		<path id="Path 33" class="s9" d="m139.5 121.3l-59.4-34.3 0.3 1.1 59.9 34.6z"/>
		<path id="Path 34" class="s14" d="m164 136.4v-0.9l11.5-6.6 0.8 0.4z"/>
		<path id="Path 35" class="s15" d="m164 94.5c6.3 0 11.5 5.1 11.5 11.4v23l0.8 0.4v-23.4c0-6.7-5.5-12.2-12.3-12.2z"/>
		<path id="Path 36" class="s13" d="m164 149.7l12.3 7-0.8 0.5-11.5-6.6z"/>
		<path id="Path 37" class="s14" d="m164.1 14.2c0 0 0 0 0 0v-0.8c0.3 0 0.6 0.2 0.7 0.6l14 46.1-0.9-0.3z"/>
		<path id="Path 38" class="s16" d="m171.5 73.2c0 5.6 2.6 10.6 6.8 13.7 5.8 4.3 9.5 11.2 9.5 19v16.8l0.8-1.4v-15.4c0-8-3.9-15.2-9.9-19.6h0.1c-4-3-6.6-7.8-6.6-13.1 0-5.4 2.6-10.2 6.6-13.2l-0.9-0.2c-3.9 3.1-6.4 7.9-6.4 13.4z"/>
		<path id="Path 39" class="s11" d="m254.6 98.3l-66 38.1-0.8-0.4 65.7-38z"/>
		<path id="Path 40" class="s17" d="m188.6 149.6l-0.8 0.5v-14.1l0.8 0.4z"/>
		<path id="Path 41" class="s18" d="m253.5 98l-5.8-10 0.3-1 6.6 11.3z"/>
		<path id="Path 42" class="s14" d="m188.6 121.3l59.4-34.3-0.3 1.1-59.9 34.6zm-48.3 56.2l-0.8 0.4v13.2l0.8 0.5z"/>
		<path id="Path 43" class="s19" d="m119.7 202.6c-5.5 3.2-12.5 1.3-15.7-4.1l-0.6 0.4c3.3 5.8 10.8 7.8 16.7 4.4l20.2-11.7-0.8-0.4z"/>
		<path id="Path 44" class="s9" d="m151.8 170.8l12.2 7.1v-0.9l-11.4-6.6z"/>
		<path id="Path 45" class="s20" d="m34.5 238.6q0 0 0 0l-0.7 0.4c0.2 0.3 0.5 0.5 0.9 0.4l46.9-10.9-0.7-0.7z"/>
		<path id="Path 46" class="s21" d="m125.8 213.3c-6.7 3.9-14.6 4.1-21.2 1.3-4.8-2.1-10.5-1.9-15.3 0.9-4.7 2.7-7.7 7.3-8.4 12.3l0.7 0.7c0.6-5 3.4-9.6 8.1-12.3 4.6-2.7 10-2.8 14.6-0.9 6.8 2.9 14.9 2.7 21.9-1.3l13.3-7.7 0.8-1.4z"/>
		<path id="Path 47" class="s17" d="m152.6 274.9v-76.2l-0.8-0.4v75.8z"/>
		<path id="Path 48" class="s11" d="m164 192.1v-0.9l-12.2 7.1 0.8 0.4z"/>
		<path id="Path 49" class="s22" d="m151.8 274.1h-11.5l-0.8 0.8h13.1z"/>
		<path id="Path 50" class="s14" d="m139.5 206.3v68.6l0.8-0.8v-69.2z"/>
		<path id="Path 51" class="s13" d="m140.3 177.5l-0.8 0.5-11.4-6.6v-0.9z"/>
		<path id="Path 52" class="s23" d="m107.8 182.2c-5.8 3.3-7.8 10.8-4.4 16.7l0.6-0.4c-3.1-5.5-1.2-12.5 4.2-15.7l19.9-11.4v-0.9z"/>
		<path id="Path 53" class="s17" d="m151.8 170.9v-14.2l0.8 0.5v13.2z"/>
		<path id="Path 54" class="s5" d="m34.5 238.6q0 0 0 0l-0.7 0.4c-0.1-0.3-0.1-0.7 0.2-1l32.8-35.1 0.3 0.9z"/>
		<path id="Path 55" class="s24" d="m115 163.8l-13.3 7.7c-7 4-11.2 10.9-12.1 18.4v-0.1c-0.6 4.9-3.5 9.6-8.1 12.2-4.7 2.7-10.1 2.9-14.7 0.9l0.2 0.9c4.7 1.9 10.2 1.6 14.9-1.1 4.8-2.8 7.8-7.6 8.4-12.7h0.1c0.8-7.2 4.9-13.9 11.7-17.8l14.5-8.4z"/>
		<path id="Path 56" class="s9" d="m62.1 118.2l66 38.1v0.9l-65.7-38z"/>
		<path id="Path 57" class="s14" d="m139.5 149.6l0.8 0.5-12.2 7.1v-1z"/>
		<path id="Path 58" class="s5" d="m62.4 119.2l-5.8 10-1 0.3 6.5-11.4z"/>
		<path id="Path 59" class="s13" d="m115 163.8l-59.4-34.3 1-0.3 59.9 34.6z"/>
		<path id="Path 60" class="s11" d="m187.8 177.5l0.8 0.5 11.4-6.6v-0.9z"/>
		<path id="Path 61" class="s25" d="m200 171.4l19.9 11.4c5.4 3.2 7.3 10.2 4.2 15.7l0.6 0.4c3.4-5.9 1.4-13.4-4.4-16.7l-20.3-11.7z"/>
		<path id="Path 62" class="s14" d="m176.3 170.9v-14.2l-0.8 0.5v13.2z"/>
		<path id="Path 63" class="s26" d="m293.6 238.6q0 0 0 0l0.7 0.4c0.1-0.3 0.1-0.7-0.1-0.9l-32.9-35.2-0.2 0.9z"/>
		<path id="Path 64" class="s27" d="m211.6 163.8l14.5 8.4c6.7 3.9 10.8 10.6 11.7 17.8 0.6 5.1 3.6 9.9 8.4 12.7 4.7 2.7 10.2 3 14.9 1.1l0.2-0.9c-4.6 2-10 1.9-14.7-0.9-4.6-2.6-7.5-7.2-8.1-12.2-0.8-7.4-5.1-14.3-12.1-18.3l-13.3-7.7z"/>
		<path id="Path 65" class="s14" d="m266 118.2l-66 38.1v0.9l65.7-37.9z"/>
		<path id="Path 66" class="s9" d="m188.6 149.6l-0.8 0.5 12.2 7v-0.8z"/>
		<path id="Path 67" class="s18" d="m265.7 119.2l5.8 10 1 0.3-6.5-11.3z"/>
		<path id="Path 68" class="s11" d="m213.1 163.8l59.4-34.3-1-0.3-59.9 34.6z"/>
		<path id="Path 69" class="s17" d="m187.8 177.5l0.8 0.5v13.2l-0.8 0.4z"/>
		<path id="Path 70" class="s28" d="m187.8 191.6l20.2 11.7c5.9 3.4 13.4 1.4 16.7-4.4l-0.6-0.4c-3.2 5.4-10.2 7.3-15.7 4.1l-19.8-11.4z"/>
		<path id="Path 71" class="s5" d="m176.3 170.8l-12.3 7.1v-0.9l11.5-6.6z"/>
		<path id="Path 72" class="s29" d="m246.5 228.5l46.9 10.9c0.3 0.1 0.7-0.1 0.9-0.4l-0.7-0.4c0 0 0 0.1 0 0.1l-46.4-10.8z"/>
		<path id="Path 73" class="s30" d="m188.6 206.4l13.3 7.6c7 4.1 15.1 4.3 21.9 1.3 4.6-1.9 10-1.7 14.6 0.9 4.7 2.7 7.5 7.4 8.1 12.3l0.7-0.6c-0.7-5-3.7-9.6-8.4-12.3-4.8-2.8-10.5-3-15.2-1-6.7 2.9-14.6 2.6-21.3-1.2l-14.5-8.4z"/>
		<path id="Path 74" class="s14" d="m175.5 274.9v-76.2l0.8-0.4v75.8z"/>
		<path id="Path 75" class="s13" d="m164 192.1v-0.9l12.3 7.1-0.8 0.4z"/>
		<path id="Path 76" class="s22" d="m176.3 274.2h11.5l0.8 0.8h-13.1z"/>
		<path id="Path 77" class="s17" d="m188.6 206.3v68.6l-0.8-0.8v-69.1z"/>
		<path id="Path 78" class="s31" d="m164.1 10c1.3 0 2.5 0.8 3 2l6.7 21.3 0.6-0.7-6.6-20.9v-0.1c-0.7-1.4-2.1-2.4-3.7-2.4z"/>
		<path id="Path 79" class="s32" d="m173.8 33.3c67.7 5 121.1 61.5 121.1 130.5 0 20.4-4.7 39.7-13 56.8l1-0.1c8.2-17.2 12.7-36.4 12.7-56.7 0-69.2-53.4-125.9-121.2-131.2z"/>
		<path id="Path 80" class="s33" d="m281.9 220.6l15.1 16.5c0.8 1 0.9 2.5 0.2 3.6l0.7 0.4q0.5-1 0.5-2c0-0.9-0.2-1.7-0.8-2.4l-14.7-16.2z"/>
		<path id="Path 81" class="s34" d="m272.5 238.4l21.2 4.7c0.2 0 0.5 0 0.7 0 1.4 0 2.8-0.7 3.5-2l-0.7-0.4c-0.6 1.2-2 1.9-3.4 1.6l-21.6-4.8z"/>
		<path id="Path 82" class="s35" d="m164.1 294.7c-45 0-84.6-22.7-108.1-57.2l-0.4 0.9c23.7 34.4 63.5 57.1 108.5 57.1 45 0 84.7-22.7 108.4-57.1l-0.3-0.9c-23.6 34.5-63.2 57.2-108.1 57.2z"/>
		<path id="Path 83" class="s36" d="m34.1 242.3c-1.2 0.2-2.5-0.4-3.2-1.6l-0.7 0.4c0.7 1.3 2.1 2 3.5 2q0.2 0 0.5 0l21.4-4.7 0.4-0.9z"/>
		<path id="Path 84" class="s37" d="m30.5 236.6c-0.6 0.8-0.8 1.6-0.8 2.5 0 0.7 0.1 1.4 0.5 2l0.7-0.4c-0.7-1.1-0.6-2.5 0.2-3.5l15.1-16.6-0.9-0.1z"/>
		<path id="Path 85" class="s38" d="m32.5 163.8c0 20.3 4.5 39.5 12.8 56.7l0.9 0.1c-8.3-17.1-13-36.4-13-56.8 0-69 53.4-125.5 121.1-130.5l-0.6-0.7c-67.8 5.3-121.2 62-121.2 131.2z"/>
		<path id="Path 86" class="s39" d="m160.3 11.7l-6.6 20.9 0.6 0.7 6.7-21.3c0.6-1.2 1.7-2 3.1-2v-0.8c-1.7 0-3.2 1.1-3.8 2.5z"/>
		<path id="Path 87" fill-rule="evenodd" class="s40" d="m1406.4 384.3c-2.2 0.4-5.1 0.7-8.5 1.2-5 10.2-10.7 22.1-17.8 38.4l-19.2 2.3c0 0 11.4-23.7 18.3-38.5-9.8 1.1-18.2 2-18.2 2 0 0 7.9-9.6 17.7-10.9 1.4-0.2 3.2-0.4 5.2-0.6q0.1-0.1 0.1-0.2c3.1-7 22.8-11.6 22.8-11.6-1.7 3.8-3.4 6.7-4.6 9.9 13.4-1.2 26.3-2.1 26.3-2.1 0 0-10.4 8.3-22.1 10.1zm-539.3 34.1q16.2 0 22 7.4 5.7 7.4-0.7 19.8c-5.2 9.8-9.8 18-22.1 24.4-12.3 6.3-24.1 9.5-38.8 9.4-10.8 0-17.9-2.5-21.6-7.5q-5.4-7.6 1-19.7c5-9.7 15.2-19.9 27.5-26.4 12.3-6.4 22.1-7.4 32.7-7.4zm-18.3 12.5c-5.6 2.8-13.1 9.8-17.5 18.1-8.5 16.6-1.6 22.5 4.9 22.1 9.5-0.7 17.1-6.9 23-16.1 5-7.7 8.4-14.2 8.3-19.9-0.2-5.4-4.8-11.1-18.7-4.2zm-254.9 35.6l-19.8 2.2-7.6-55.5c8.5-3.3 22.1-5 22.1-5l6.1 41.6c0 0 26.7-30.7 34-39 7.2-8.4 21.9-8.1 21.9-8.1zm31.7-16.4c31.1 2.5 59.9-3.1 54.8-11.9-2.8-4.8-11.9-6.2-23.9-10.9-12.1-4.7-2.4-15 13.1-20.2 20.4-6.8 52.1-7.1 52.1-7.1l-5.5 7.1c-30.7-1.3-46.1 8.5-36.2 11.6 15.9 5 22.4 8.1 24.8 14.3 4.9 12.8-33.9 29.4-86.4 24.3z"/>
		<path id="Path 88" fill-rule="evenodd" class="s40" d="m1207.8 434.8c-7.1 7.3-27.4 15.5-44.4 10.3-6.1-1.9-13.2-7-6.7-21.9 11.3-25.7 46.4-35.2 58.4-30.3 13.3 5.4 3.3 20.7-0.5 22.4-2.1 1-41.1 8.2-41.1 8.2 0 0-6 8.5 1.4 12.1 4.8 2.4 17.7-1.5 23.7-4 9-3.9 15.2-7.8 15.2-7.8zm-30.5-18.2c0 0 13.4-1.5 22.4-4.7 3.6-1.3 11-14 3.3-13.1-14.2 1.8-25.7 17.8-25.7 17.8zm-632.4 46.2c-8.6 8.3-35.5 17.6-60.2 11.3-8.8-2.2-19.8-8.3-13.6-25.3 10.8-29.8 58-40.3 75.8-34.5 19.6 6.4 8.1 23.2 3.5 26-4.1 2.5-55.8 8.9-55.8 8.9 0 0-6.6 9.9 4.3 14.1 7.2 2.8 24.5-1.5 32.4-4.4 11.7-4.4 19.7-8.9 19.7-8.9zm-46.5-22.5c0 0 20-1.9 30.7-4.1 4.9-1 12.7-16 2.1-15.1-19.5 1.9-32.8 19.2-32.8 19.2z"/>
		<path id="Path 89" fill-rule="evenodd" class="s40" d="m1283.6 431.5c0 0-4.9 3.3-12.4 3.9-12.7 0.9-10.3-10.7-10.3-10.7 0 0-17.7 16.8-30.1 14.2-8.3-1.7-10-11.8-1.4-25.5 6.3-10 19.5-22.5 45.1-25.3 7.8-0.8 19.5-1.8 19.5-1.8 0 0-14.5 25.3-17.6 32.6-4.6 10.7 0.3 10.4 10.2 7.6zm-8.8-35c-11.9 0.4-22.1 3.9-29.1 14.6-4.1 6.1-5.8 15.1 0.4 13.9 18.6-3.7 28.7-28.5 28.7-28.5zm-270 10.8c17.4-1.5 16.9 3.8 16.9 3.8 19.6-11.6 38.1-7.5 38.1-7.5 0 0-4.8 4.4-12 8-11.9 5.8-19.3-4.2-30.6 11.2-5.2 7.1-19.7 36.2-19.7 36.2l-22.5 3.2c10.7-19 29.8-54.9 29.8-54.9zm308.4-22.6c16.8-2.2 14.4 4.7 14.4 4.7 18.8-12.2 36.5-8.8 36.5-8.8 0 0-4.6 4.5-11.5 8.2-11.5 6.2-18.9-3.3-29.7 12.2-5 7.2-13.9 29.8-13.9 29.8l-19.3 2.4c11.7-23.9 23.5-48.5 23.5-48.5zm-396.4 84.8c-23.7 0.2-21.1-12.2-18.3-19.4 2.2-5.6 8.2-15.9 12.9-23.9 0 0 4-5.7 8.8-8.6 4.8-2.9 18.5-5.2 18.5-5.2 0.1 0-12 21.2-17 33.1-4 9.5-5.9 15.7 7.3 14 9.1-1.1 13.3-5.4 20.3-16.6 5.1-8.2 10.9-19.4 13.7-25 2.6-5.1 10.4-8 24.5-8.6 0 0-13 23.4-19.4 35.3-9.1 17.1-30.1 24.7-51.3 24.9z"/>
		<path id="Path 90" fill-rule="evenodd" class="s40" d="m1454.5 431.7l-28.2 8.8c0 0-628.6 67.7-705.5 78.3 0 0 12.3-18.3 29.1-43-61.3 5-223.7 27.4-302.7 32.4-15.8 1-28.5 0-39.7-5-10-4.4-57.9-35.2-78.2-46.4-15.8 28.1-31 55-33.9 59.6-6.2 10-47.9 11.6-47.9 11.6 28.5-40.8 74.7-111.3 87.6-131-21.9 3.1-43.8 7.2-61.7 10.8-14.6 2.9-25.4-5.7-25.4-5.7 0 0 145.7-27.5 193.1-20.2 61.4 9.4 31.5 44.2-13.5 61.2-27.3 10.3-43.7 12.6-43.7 12.6 13.7 7.6 21.7 15.7 41.2 25.1 27.2 13.2 54.5 14.5 67 14 27.7-1.2 234.8-23.3 262.8-26.3q1.9-2.8 3.9-5.8c1-1.5 2.6-3.6 1.7-5.9-5.5-15-18.5-56.4-18.5-56.4 6.3-2.8 18.8-3.3 18.8-3.3 2.7 11.6 13.1 43.4 13.1 43.4l30.6-43.8c3.6-5.2 28.6-6 28.6-6-29.9 33.8-51.2 70.2-76.4 111.8 153.8-12 697.8-70.8 697.8-70.8zm-1124.8 24.5c6.2-1.3 39.8-8.2 65.5-18.8 24.7-10.3 62-33.3 29.2-43.2-12.8-3.8-34.5-3.4-58.9-1-7 11.8-21.7 37.8-35.8 63zm840.7-87c-4.8 8-20.7 37.9-38 81.2l-19 2c0 0 7.7-18.4 16.7-38.3-10.7 1.5-27.2 3.9-36.5 5.8-5 11.3-10.3 24-16 36.4l-21.5 2.2c0 0 23.6-50.4 36.4-74.4-1.2-2.8-5.6-4.6-5.6-4.6 0 0 4.1-1.7 11.5-3.2 6.8-1.4 15.2-1.9 15.2-1.9-4.1 9-9.4 21.3-15.6 35.6l36-4.4c5.4-11.6 10.9-22.9 15.3-30.4 4.2-7.1 21.1-6 21.1-6z"/>
		<g id="Mask" clip-path="url(#cp2)">
		</g>
	</g>
</svg>