<svg version="1.2" xmlns="http://www.w3.org/2000/svg" viewBox="0 0 1529 338" width="1529" height="338">
	<title>Eternal_Limited</title>
	<defs>
		<clipPath clipPathUnits="userSpaceOnUse" id="cp1">
			<path d="m1526.24-1v339h-1526.8v-339z"/>
		</clipPath>
		<clipPath clipPathUnits="userSpaceOnUse" id="cp2">
			<path d="m338.26-1v339h-338.82v-339z"/>
		</clipPath>
		<clipPath clipPathUnits="userSpaceOnUse" id="cp3">
			<path d="m1528.75 27.25v269.94h-1079.22v-269.94z"/>
		</clipPath>
	</defs>
	<style>
		.s0 { fill: #0a0a0a } 
	</style>
	<g id="Clip-Path" clip-path="url(#cp1)">
		<g>
			<g id="Clip-Path" clip-path="url(#cp2)">
				<g>
					<path fill-rule="evenodd" class="s0" d="m199.1 172c46.7-1.4 84.1-39.4 84.1-86.1 0-31-16.4-58.1-41.1-73.3 39.9 6.2 70.4 40.5 70.4 81.9 0 45.8-37.4 83-83.5 83-10.6 0-20.6-2-29.9-5.5z"/>
					<path fill-rule="evenodd" class="s0" d="m132.2 88c9.7 20.1 28.2 35.8 51.8 41.1 27.9 6.3 55.6-3.4 73.5-23-9.6 31.6-42.5 50.9-75.5 43.5-29.5-6.7-49.6-32.7-49.8-61.6z"/>
					<path class="s0" d="m67.7 144.4c0-25.2 5-49.3 14-71.3-2.3 11.7-3.5 23.8-3.5 36.2 0 104.3 85.2 188.8 190.2 188.8q9.2 0 18.1-0.8c-15.8 14.5-41.8 27.2-60.1 33.3-90.1-14.9-158.7-92.6-158.7-186.2z"/>
					<path class="s0" d="m274.8 269.5c-86.2 0-159-56.9-182.3-135 31.2 61.9 95.7 104.3 170.1 104.3 26.7 0 52.1-5.4 75.2-15.3-2.8 10.8-14.2 31.1-21.5 41.5-13.4 2.9-27.2 4.5-41.5 4.5z"/>
					<path class="s0" d="m0.8 165.9c0-79 53.9-145.6 127.2-165.5-50 34-82.7 91.1-82.7 155.8 0 85.7 57.6 158.2 136.6 181.1q-4.1 0.2-8.2 0.2c-95.5 0-172.9-76.8-172.9-171.6z"/>
				</g>
			</g>
			<g id="Clip-Path" clip-path="url(#cp3)">
				<g>
					<path class="s0" d="m1506 38.5v245.7c0 5.5 4.5 9.9 10 9.9h2.8c5.5 0 9.9-4.4 9.9-9.9v-245.7q0-6-2.9-8.6-3-2.9-8.2-2.9-5.6 0-8.6 2.9-3 2.6-3 8.6z"/>
					<path fill-rule="evenodd" class="s0" d="m1378.7 294q-18.2 0-32.7-7-14.2-7.1-22.7-19.3-8.2-12.3-8.2-27.5 0-20.1 10-31.6 10.1-11.5 33.9-16 23.8-4.8 65.5-4.8h11.5v-13.4q0-24.9-10-36-10.1-11.5-32-11.5-14.2 0-27.6 3.7-13 3.7-27.9 11.9-4.1 2.2-7.4 1.5-3-0.8-4.9-3-1.4-2.2-2.2-5.2-0.4-3.3 1.1-6.3 1.5-3 5.2-4.8 15.7-8.6 31.7-12.7 16.3-4.4 31.6-4.4 22 0 36.1 7.4 14.5 7.4 21.2 22.3 7.1 14.8 7.1 38.2v106.3q0 5.6-2.6 8.5-2.6 3-7.8 3-5.2 0-8.2-3-3-2.9-3-8.5v-22.8q-3.2 7.5-8.2 13.5-8.5 10.4-21.2 16-12.6 5.5-28.3 5.5zm57.3-77.2v-12.3h-11.1q-33.5 0-52.5 3-18.6 2.6-26.1 10-7.4 7.5-7.4 20.8 0 16.7 11.5 27.1 11.6 10.4 31.3 10.4 16 0 27.9-7.4 12.3-7.8 19.4-21.2 7-13.3 7-30.4z"/>
					<path class="s0" d="m1128.9 290.3q3 3 8.6 3 11.1 0 11.1-11.5v-93.6q0-27.9 16-44.2 16.4-16.7 43.2-16.7 23.5 0 34.3 12.6 10.8 12.2 10.8 39.4v102.5q0 5.6 2.9 8.5 3 3 8.6 3 5.2 0 8.2-3 3-2.9 3-8.5v-104.4q0-23.4-7.1-39-7.1-15.6-21.6-23-14.1-7.8-35.7-7.8-23.5 0-41.7 11.5-13.7 8.8-21.2 23.9v-22.8q0-5.9-3-8.9-2.6-3-7.8-3-5.6 0-8.6 3-3 3-3 8.9v161.6q0 5.6 3 8.5z"/>
					<path class="s0" d="m1005.2 293.3q-5.6 0-8.5-3-3-2.9-3-8.5v-161.6q0-5.9 3-8.9 2.9-3 8.5-3 5.2 0 7.8 3 3 3 3 8.9v23.3q7-15 20.1-24 17.5-11.9 41.7-12.3 4.5-0.4 7.5 1.9 2.9 2.2 2.9 7 0.4 5.2-2.2 8.2-2.6 2.6-8.6 3.3l-5.2 0.4q-26.4 2.6-40.9 17.5-14.5 14.8-14.5 40.1v96.2q0 5.6-3 8.5-2.6 3-8.6 3z"/>
					<path fill-rule="evenodd" class="s0" d="m797 251q-10.8-20.8-10.7-49.5-0.1-28.2 10.7-49 10.8-21.2 29.8-33 19.4-11.9 44.3-11.9 18.2 0 32 6.3 14.2 5.9 23.8 17.4 10.1 11.2 15.3 27.5 5.2 16 5.2 36.4 0 5.2-3 7.8-2.6 2.6-7.4 2.6h-128.3q1 32.5 17.4 50.6 17.5 18.9 49.1 18.9 13.8 0 26.4-3.7 13.1-3.7 25.3-12.6 3.8-2.6 7.1-2.6 3.7 0 6 1.8 2.6 1.9 3.3 4.8 1.1 2.6-0.4 6-1.1 3-4.8 5.6-11.9 9.6-28.7 14.8-16.7 4.8-33.5 4.8-27.9 0-48-11.1-20.1-11.1-30.9-31.9zm130.2-62.1q-0.6-18.4-6.2-31.6-6.3-15.2-19-23.4-12.3-8.1-30.5-8.1-20.5 0-34.6 9.6-14.2 9.3-21.2 26-5.4 12.3-6.7 27.5z"/>
					<path class="s0" d="m733.9 294q-20.1 0-33.5-7.4-13.4-7.4-20.1-21.2-6.7-14.1-6.7-34.5v-101.8h-27.6q-4.8 0-7.8-2.2-3-2.6-3-7.1 0-4.1 3-6.3 3-2.6 7.8-2.6h27.6v-46.4q0-6 3-8.6 2.9-2.9 8.5-2.9 5.2 0 8.2 2.9 3 2.6 3 8.6v46.4h50.2q5.2 0 7.9 2.6 2.6 2.2 2.6 6.3 0 4.5-2.6 7.1-2.7 2.2-7.9 2.2h-50.2v98.8q0 22.7 9.3 34.6 9.3 11.9 30.9 11.9 7.4 0 12.3-1.5 5.2-1.9 8.5-1.9 2.6 0 4.5 2.2 2.2 2.3 2.2 7.1 0 3-1.5 5.9-1.1 3-4.4 3.8-4.1 1.4-11.2 2.6-7.1 1.4-13 1.4z"/>
					<path fill-rule="evenodd" class="s0" d="m460.3 251q-10.8-20.8-10.8-49.5 0-28.2 10.8-49 10.8-21.2 29.8-33 19.4-11.9 44.3-11.9 18.2 0 32 6.3 14.1 5.9 23.8 17.4 10.1 11.2 15.3 27.5 5.2 16 5.2 36.4 0 5.2-3 7.8-2.6 2.6-7.4 2.6h-128.4q1.1 32.5 17.5 50.6 17.5 18.9 49.1 18.9 13.8 0 26.4-3.7 13-3.7 25.3-12.6 3.7-2.6 7.1-2.6 3.7 0 5.9 1.8 2.7 1.9 3.4 4.8 1.1 2.6-0.4 6-1.1 3-4.8 5.6-11.9 9.6-28.7 14.8-16.7 4.8-33.5 4.8-27.9 0-48-11.1-20.1-11.1-30.9-31.9zm130.2-62.1q-0.6-18.4-6.2-31.6-6.4-15.2-19-23.4-12.3-8.1-30.5-8.1-20.5 0-34.6 9.6-14.2 9.3-21.3 26-5.3 12.3-6.6 27.5z"/>
				</g>
			</g>
		</g>
	</g>
</svg>