<svg version="1.2" xmlns="http://www.w3.org/2000/svg" viewBox="0 0 1552 394" width="1552" height="394">
	<title>kellanova</title>
	<style>
		.s0 { fill: #f60b45 } 
	</style>
	<path class="s0" d="m1085.1 354.2c53.9 0 97.7-42.4 97.7-97.9 0-54.7-43.8-97.4-97.7-97.4-54.7 0-97.7 42.7-97.7 97.4 0 55.5 43 97.9 97.7 97.9zm358.7 0c26 0 46.2-9 60.5-27.2v22.1h47.7v-185.2h-47.7v21.8q-21.5-26.8-60.5-26.8c-48.5 0-89.6 42.7-89.6 97.4 0 55.5 41.1 97.9 89.6 97.9zm-776.4 0c26 0 45.8-9 60.1-27.2v22.1h47.7v-185.2h-47.7v21.8c-14.3-17.9-34.1-26.8-60.1-26.8-48.8 0-89.6 43.1-89.6 97.4 0 55.2 40.8 97.9 89.6 97.9zm-326.5 0c32.6 0 57.4-10.9 75.6-33l-33.3-28.8c-9.7 12.5-23.3 18.7-41.5 18.7-28.4 0-45.8-11.7-52-35h139.2c1.2-7 2-13.6 2-19.8 0-55.1-39.2-97.4-93.5-97.4-57.4 0-97.7 42.3-97.7 97.4 0 55.9 39.1 97.9 101.2 97.9zm-125.7 14.7c-11.6-0.8-17-14.3-17-31 0-18.3 12-57.5 16.6-76.1 4.7-19.1 6.6-49.3-10.4-66.8 64.7-26 160.5-115 172.9-134.4 12.1-19.4 14.8-43.8-2.3-56.3-17.1-12.4-44.6 3.5-60.9 27.2-45 64.9-72.1 96.7-102.7 123.5-24.1 20.6-35.7 21-47.4 22.5 2-3.1 44.3-72.2 60.9-94 19.8-26-4.6-35.7-28.3-19.4-4.6 3.5-42.3 29.5-87.6 52.8-80.7 41.6-100.1 61-100.1 85.8 0 10.9 7.8 24.9 24.1 24.9 31.8 0 62.8-56.3 78.3-70.7 5.8-5.4 19.8-17.4 24.8-17.4 2 0 3.1 1.1 3.1 4.6 0 10.9-20.9 41.6-53.5 76.5-46.9 51.3-85.7 71.4-85.7 104.1 0 21.3 15.9 33 33.4 33 36 0 60.4-48.6 74.8-72.6 5.8-9.7 38-69.5 44.6-82.4 7.4 3.5 11.6 11.3 9.3 27.2-4.3 28.8-29.9 63.3-29.9 111.5 0 39.2 36.5 51.6 51.2 51.6 13.2 0 31.4-4.9 35.7-18.6 0.7-2.2-0.4-5.3-3.9-5.5zm1237.5-60.2c-29.5 0-50.8-21.3-50.8-52.4 0-30.3 21.3-52 50.8-52 29.5 0 51.6 21.7 51.6 52 0 31.1-22.1 52.4-51.6 52.4zm-776.4 0c-29.8 0-51.2-21.7-51.2-52.4 0-29.9 21.4-52 51.2-52 29.5 0 51.2 21.7 51.2 52 0 31.1-21.7 52.4-51.2 52.4zm123.7 40.4h47.7v-100.2c0-30.6 16.3-45.8 40.8-45.8 21.7 0 36.4 14 36.4 38.1v107.9h47.7v-113.7c0-47.4-29.5-76.5-69.8-76.5-25.2 0-43.4 8.5-55.1 26v-21h-47.6v185.2zm285-41.5c-28.7 0-50-21-50-51.3 0-29.5 21.3-50.9 50-50.9 29.1 0 50.4 21.8 50.4 50.9 0 29.9-21.3 51.3-50.4 51.3zm155.1 41.5h57c15.5-90.8 50-155.7 90.8-189.9l-33.4-28.7c-39.5 31.9-77.9 91.3-86.5 165l-45.7-131.6h-52.4zm-746.9-270.2h-47.7v270.2h47.7zm68.6 0h-47.3v270.2h47.3zm-273 160.4c5.5-23.7 22.5-37.7 48.5-37.7 21.3 0 40.3 11.7 45.8 37.7h-94.3z"/>
</svg>